<svg id="visual" viewBox="0 0 960 540" width="960" height="540" xmlns="http://www.w3.org/2000/svg" xmlns:xlink="http://www.w3.org/1999/xlink" version="1.1"><path d="M0 179L120 206L240 125L360 71L480 163L600 152L720 55L840 109L960 104L960 0L840 0L720 0L600 0L480 0L360 0L240 0L120 0L0 0Z" fill="transparent"></path><path d="M0 222L120 233L240 152L360 109L480 185L600 168L720 82L840 131L960 131L960 102L840 107L720 53L600 150L480 161L360 69L240 123L120 204L0 177Z" fill="#2a0e31"></path><path d="M0 266L120 276L240 190L360 185L480 255L600 222L720 163L840 179L960 179L960 129L840 129L720 80L600 166L480 183L360 107L240 150L120 231L0 220Z" fill="#47123e"></path><path d="M0 303L120 293L240 206L360 244L480 314L600 239L720 212L840 222L960 212L960 177L840 177L720 161L600 220L480 253L360 183L240 188L120 274L0 264Z" fill="#651547"></path><path d="M0 336L120 320L240 233L360 271L480 341L600 271L720 239L840 244L960 228L960 210L840 220L720 210L600 237L480 312L360 242L240 204L120 291L0 301Z" fill="#85194b"></path><path d="M0 368L120 341L240 271L360 282L480 363L600 298L720 260L840 266L960 244L960 226L840 242L720 237L600 269L480 339L360 269L240 231L120 318L0 334Z" fill="#a3214a"></path><path d="M0 422L120 428L240 379L360 390L480 417L600 357L720 384L840 379L960 401L960 242L840 264L720 258L600 296L480 361L360 280L240 269L120 339L0 366Z" fill="#bf2f45"></path><path d="M0 455L120 482L240 455L360 476L480 460L600 465L720 476L840 438L960 487L960 399L840 377L720 382L600 355L480 415L360 388L240 377L120 426L0 420Z" fill="#d7433b"></path><path d="M0 503L120 503L240 498L360 525L480 519L600 503L720 503L840 498L960 509L960 485L840 436L720 474L600 463L480 458L360 474L240 453L120 480L0 453Z" fill="#ea5b2c"></path><path d="M0 541L120 541L240 541L360 541L480 541L600 541L720 541L840 541L960 541L960 507L840 496L720 501L600 501L480 517L360 523L240 496L120 501L0 501Z" fill="#f7770f"></path></svg>