<svg id="visual" viewBox="0 0 960 540" width="960" height="540" xmlns="http://www.w3.org/2000/svg" xmlns:xlink="http://www.w3.org/1999/xlink" version="1.1"><rect x="0" y="0" width="960" height="540" fill="transparent"></rect><path d="M394 0L475 0L475 23L290 23L290 47L293 47L293 70L401 70L401 94L389 94L389 117L289 117L289 141L323 141L323 164L276 164L276 188L295 188L295 211L332 211L332 235L302 235L302 258L395 258L395 282L321 282L321 305L375 305L375 329L459 329L459 352L458 352L458 376L353 376L353 399L360 399L360 423L470 423L470 446L395 446L395 470L432 470L432 493L427 493L427 517L321 517L321 540L0 540L0 517L0 517L0 493L0 493L0 470L0 470L0 446L0 446L0 423L0 423L0 399L0 399L0 376L0 376L0 352L0 352L0 329L0 329L0 305L0 305L0 282L0 282L0 258L0 258L0 235L0 235L0 211L0 211L0 188L0 188L0 164L0 164L0 141L0 141L0 117L0 117L0 94L0 94L0 70L0 70L0 47L0 47L0 23L0 23L0 0L0 0Z" fill="#f7770f"></path><path d="M268 0L339 0L339 23L360 23L360 47L184 47L184 70L198 70L198 94L356 94L356 117L230 117L230 141L309 141L309 164L182 164L182 188L349 188L349 211L299 211L299 235L307 235L307 258L246 258L246 282L355 282L355 305L259 305L259 329L275 329L275 352L330 352L330 376L236 376L236 399L189 399L189 423L363 423L363 446L270 446L270 470L324 470L324 493L174 493L174 517L385 517L385 540L0 540L0 517L0 517L0 493L0 493L0 470L0 470L0 446L0 446L0 423L0 423L0 399L0 399L0 376L0 376L0 352L0 352L0 329L0 329L0 305L0 305L0 282L0 282L0 258L0 258L0 235L0 235L0 211L0 211L0 188L0 188L0 164L0 164L0 141L0 141L0 117L0 117L0 94L0 94L0 70L0 70L0 47L0 47L0 23L0 23L0 0L0 0Z" fill="#f98b1d"></path><path d="M238 0L163 0L163 23L280 23L280 47L207 47L207 70L232 70L232 94L140 94L140 117L161 117L161 141L173 141L173 164L155 164L155 188L220 188L220 211L199 211L199 235L249 235L249 258L112 258L112 282L174 282L174 305L268 305L268 329L198 329L198 352L196 352L196 376L227 376L227 399L117 399L117 423L266 423L266 446L186 446L186 470L117 470L117 493L269 493L269 517L256 517L256 540L0 540L0 517L0 517L0 493L0 493L0 470L0 470L0 446L0 446L0 423L0 423L0 399L0 399L0 376L0 376L0 352L0 352L0 329L0 329L0 305L0 305L0 282L0 282L0 258L0 258L0 235L0 235L0 211L0 211L0 188L0 188L0 164L0 164L0 141L0 141L0 117L0 117L0 94L0 94L0 70L0 70L0 47L0 47L0 23L0 23L0 0L0 0Z" fill="#fb9d2c"></path><path d="M60 0L19 0L19 23L158 23L158 47L8 47L8 70L130 70L130 94L56 94L56 117L38 117L38 141L31 141L31 164L164 164L164 188L159 188L159 211L137 211L137 235L166 235L166 258L96 258L96 282L90 282L90 305L169 305L169 329L46 329L46 352L100 352L100 376L149 376L149 399L159 399L159 423L52 423L52 446L122 446L122 470L87 470L87 493L39 493L39 517L80 517L80 540L0 540L0 517L0 517L0 493L0 493L0 470L0 470L0 446L0 446L0 423L0 423L0 399L0 399L0 376L0 376L0 352L0 352L0 329L0 329L0 305L0 305L0 282L0 282L0 258L0 258L0 235L0 235L0 211L0 211L0 188L0 188L0 164L0 164L0 141L0 141L0 117L0 117L0 94L0 94L0 70L0 70L0 47L0 47L0 23L0 23L0 0L0 0Z" fill="#fcaf3c"></path></svg>